<?xml version="1.0" encoding="utf-8"?>
<!-- Generator: Adobe Illustrator 16.0.0, SVG Export Plug-In . SVG Version: 6.00 Build 0)  -->
<!DOCTYPE svg PUBLIC "-//W3C//DTD SVG 1.1//EN" "http://www.w3.org/Graphics/SVG/1.1/DTD/svg11.dtd">
<svg version="1.1" id="Layer_1" xmlns:serif="http://www.serif.com/"
	 xmlns="http://www.w3.org/2000/svg" xmlns:xlink="http://www.w3.org/1999/xlink" x="0px" y="0px" width="612px" height="612px"
	 viewBox="0 90 612 612" enable-background="new 0 90 612 612" xml:space="preserve">
<path fill="#1777F2" d="M537.228,90C578.496,90,612,123.505,612,164.771v462.457C612,668.495,578.495,702,537.228,702H409.966
	V471.406h79.607l15.147-98.758h-94.755V308.56c0-27.018,13.235-53.354,55.677-53.354h43.082v-84.078c0,0-39.099-6.672-76.479-6.672
	c-78.04,0-129.046,47.297-129.046,132.923v75.27h-86.747v98.758H303.2V702H74.772C33.504,702,0,668.495,0,627.229V164.771
	C0,123.504,33.503,90,74.772,90H537.228L537.228,90z"/>
</svg>
